<svg xmlns="http://www.w3.org/2000/svg" width="64" height="64" viewBox="0 0 64 64" fill="none">
  <circle cx="32" cy="32" r="30" fill="#FFD54F" stroke="#E65100" stroke-width="4"/>
  <path d="M32 8C29.1667 8 26.3333 8.5 23.5 9.5C20.6667 10.5 18.0833 11.9167 15.75 13.75C13.4167 15.5833 11.5 17.75 10 20.25C8.5 22.75 7.58333 25.3333 7.25 28C6.91667 30.6667 7.16667 33.3333 8 36C8.83333 38.6667 10.1667 41.0833 12 43.25C13.8333 45.4167 16.0833 47.1667 18.75 48.5C21.4167 49.8333 24.4167 50.5 27.75 50.5" stroke="#E65100" stroke-width="2" stroke-linecap="round"/>
  <path d="M32 8C35.3333 8 38.4167 8.75 41.25 10.25C44.0833 11.75 46.4167 13.75 48.25 16.25C50.0833 18.75 51.3333 21.5833 52 24.75C52.6667 27.9167 52.6667 31.0833 52 34.25C51.3333 37.4167 50.0833 40.25 48.25 42.75C46.4167 45.25 44.0833 47.25 41.25 48.75C38.4167 50.25 35.3333 51 32 51" stroke="#E65100" stroke-width="2" stroke-linecap="round"/>
  <path d="M13 19C16.3333 15.6667 20.3333 13.3333 25 12C29.6667 10.6667 34.3333 10.6667 39 12C43.6667 13.3333 47.6667 15.6667 51 19" stroke="#E65100" stroke-width="2" stroke-linecap="round"/>
  <path d="M13 45C16.3333 48.3333 20.3333 50.6667 25 52C29.6667 53.3333 34.3333 53.3333 39 52C43.6667 50.6667 47.6667 48.3333 51 45" stroke="#E65100" stroke-width="2" stroke-linecap="round"/>
</svg>